# xmcd
#
# Track frame offsets:
#	150
#	19345
#	33112
#	52337
#	75753
#	97218
#	115852
#	129191
#	142140
#	155604
#	177779
#	196117
#
# Disc length: 2842 seconds
#
# Revision: 0
# Processed by: cddbd v1.5.1PL2 Copyright (c) Steve Scherf et al.
# Submitted via: dBpowerAMP V4.0
#
DISCID=9a0b180c
DTITLE=Dave Lambert - Live At Piggy Blue's !
DYEAR=2006
DGENRE=Blues
TTITLE0=Run With Me
TTITLE1=You're Gonna Need Somebody On Your Bond
TTITLE2=He's God
TTITLE3=Devil Got My Woman
TTITLE4=Lil' Red Rooster
TTITLE5=Homesick And Lonesome Blues
TTITLE6=Berwick Road
TTITLE7=Cherry Bomb
TTITLE8=Mean Ol' Airplane
TTITLE9=Short Fuse Blues
TTITLE10=I Need Love
TTITLE11=Highway 49
EXTD=
EXTT0=
EXTT1=
EXTT2=
EXTT3=
EXTT4=
EXTT5=
EXTT6=
EXTT7=
EXTT8=
EXTT9=
EXTT10=
EXTT11=
PLAYORDER=
